<svg xmlns="http://www.w3.org/2000/svg" xmlns:xlink="http://www.w3.org/1999/xlink" width="140pt" height="200" viewBox="0 0 140 150"><defs><linearGradient id="c" gradientUnits="userSpaceOnUse" x1="-259.265" y1="437.559" x2="-258.278" y2="437.559" gradientTransform="matrix(117.575 0 0 -148.015 30483.89 64839.303)"><stop offset="0" stop-color="#392dd1"/><stop offset="1" stop-color="#4169E1"/></linearGradient><filter id="a" filterUnits="objectBoundingBox" x="0%" y="0%" width="100%" height="100%"><feColorMatrix in="SourceGraphic" values="0 0 0 0 1 0 0 0 0 1 0 0 0 0 1 0 0 0 1 0"/></filter><mask id="e"><path fill-opacity=".518" d="M0 0h140v150H0z" filter="url(#a)"/></mask><clipPath id="b"><path d="M0 0h140v150H0z"/></clipPath><g id="d" clip-path="url(#b)" fill="#f1f1f1"><path d="M42.59 19.41h53.836c.332 0 .5.336.5.5v3.336c0 .332-.336.5-.5.5H42.59c-.332 0-.5-.336-.5-.5V19.91c0-.164.168-.5.5-.5zm0 0M42.59 36.078h52.336c.332 0 .5.332.5.5v3.332c0 .336-.336.5-.5.5H42.59c-.332 0-.5-.332-.5-.5v-3.332c0-.168.168-.5.5-.5zm0 0M16.258 99.746h75c.332 0 .5.332.5.5v3.332c0 .332-.332.5-.5.5h-75c-.332 0-.5-.332-.5-.5v-3.332c0-.336.332-.5.5-.5zm0 0M13.258 56.746h90.168c.332 0 .5.332.5.5v8.5c0 .332-.336.5-.5.5H13.258c-.332 0-.5-.336-.5-.5v-8.5c-.168-.336.168-.5.5-.5zm0 0M12.926 71.078h90.332c.332 0 .5.332.5.5V90.41c0 .336-.332.5-.5.5H12.926c-.168.168-.5-.164-.5-.5V71.578c0-.168.332-.5.5-.5zm0 0M42.59 28.746h61c.336 0 .5.332.5.5v1.5c0 .332-.332.5-.5.5h-61c-.332 0-.5-.336-.5-.5V29.41c0-.332.168-.664.5-.664zm0 0M12.926 49.41h87.832c.332 0 .5.336.5.5v1.5c0 .336-.332.5-.5.5H12.926c-.336 0-.5-.332-.5-.5v-1.5c0-.164.332-.5.5-.5zm0 0M16.258 109.078h84.832c.336 0 .5.332.5.5v1.5c0 .332-.332.5-.5.5H16.258c-.168 0-.5-.168-.5-.5v-1.5c0-.332.332-.5.5-.5zm0 0"/></g><linearGradient id="f" gradientUnits="userSpaceOnUse" x1="-256.22" y1="436.848" x2="-254.643" y2="435.848" gradientTransform="matrix(62.98 0 0 -114.75333 16202.074 50172.643)"><stop offset="0" stop-color="#392dd1"/><stop offset="1" stop-color="#4169E1"/></linearGradient><radialGradient id="g" gradientUnits="userSpaceOnUse" cx="-76.36" cy="120.325" fx="-76.36" fy="120.325" r="4.305" gradientTransform="matrix(-2.39617 0 0 2.28317 -90.67 -213.892)"><stop offset="0" stop-color="#4aab00"/><stop offset="1" stop-color="#4c7400"/></radialGradient><radialGradient id="h" gradientUnits="userSpaceOnUse" cx="-76.36" cy="120.349" fx="-76.36" fy="120.349" r="4.305" gradientTransform="matrix(-2.39617 0 0 2.28317 -90.67 -213.892)"><stop offset="0" stop-color="#3970c4"/><stop offset="1" stop-color="#0d336b"/></radialGradient><radialGradient id="i" gradientUnits="userSpaceOnUse" cx="-78.834" cy="117.193" fx="-78.834" fy="117.193" r="5.831" gradientTransform="matrix(-2.39617 0 0 2.28317 -90.67 -213.892)"><stop offset="0" stop-color="#78ef00"/><stop offset="1" stop-color="#54a700"/></radialGradient><radialGradient id="j" gradientUnits="userSpaceOnUse" cx="-78.834" cy="117.217" fx="-78.834" fy="117.217" r="5.831" gradientTransform="matrix(-2.39617 0 0 2.28317 -90.67 -213.892)"><stop offset="0" stop-color="#00c4ff"/><stop offset="1" stop-color="#06f"/></radialGradient><radialGradient id="k" gradientUnits="userSpaceOnUse" cx="6.364" cy="139.248" fx="6.364" fy="139.248" r="7.615" gradientTransform="matrix(-2.39617 0 0 2.28317 35.769 -281.163)"><stop offset="0" stop-color="#4aab00"/><stop offset="1" stop-color="#4c7400"/></radialGradient><radialGradient id="l" gradientUnits="userSpaceOnUse" cx="6.364" cy="139.291" fx="6.364" fy="139.291" r="7.615" gradientTransform="matrix(-2.39617 0 0 2.28317 35.769 -281.163)"><stop offset="0" stop-color="#3970c4"/><stop offset="1" stop-color="#0d336b"/></radialGradient><radialGradient id="m" gradientUnits="userSpaceOnUse" cx="1.988" cy="133.708" fx="1.988" fy="133.708" r="10.314" gradientTransform="matrix(-2.39617 0 0 2.28317 35.769 -281.163)"><stop offset="0" stop-color="#78ef00"/><stop offset="1" stop-color="#54a700"/></radialGradient><radialGradient id="n" gradientUnits="userSpaceOnUse" cx="1.988" cy="133.751" fx="1.988" fy="133.751" r="10.314" gradientTransform="matrix(-2.39617 0 0 2.28317 35.769 -281.163)"><stop offset="0" stop-color="#00c4ff"/><stop offset="1" stop-color="#06f"/></radialGradient></defs><path d="M0 6.332C0 2.832 2.832 0 6.332 0h105c3.5 0 6.336 2.832 6.336 6.332v135.5c0 3.5-2.836 6.336-6.336 6.336h-105c-3.5-.168-6.332-3-6.332-6.5zm0 0" fill-rule="evenodd" fill="url(#c)"/><path d="M4.832 9.5c0-1.832 1.5-3.5 3.5-3.5h101c1.836 0 3.5 1.5 3.5 3.5v113.168c0 1.832-1.5 3.5-3.5 3.5h-101c-1.832 0-3.5-1.5-3.5-3.336zm0 0" fill-rule="evenodd" fill="#fff"/><use xlink:href="#d" mask="url(#e)"/><path d="M64.168 135.832a4.834 4.834 0 1 0-9.668.003 4.834 4.834 0 0 0 9.668-.003zm0 0" fill="#fff"/><path d="M76.668 43.5c0-4.668 3.832-8.5 8.5-8.5h46c4.664 0 8.5 3.832 8.5 8.5v97.832c0 4.668-3.836 8.5-8.5 8.5h-46c-4.668 0-8.5-3.832-8.5-8.5zm0 0" fill-rule="evenodd" fill="url(#f)"/><path d="M79.5 43.332c0-2.5 2-4.664 4.668-4.664h48.164c2.5 0 4.668 2 4.668 4.664v91.336c0 2.5-2 4.664-4.668 4.664H84.168c-2.5 0-4.668-2-4.668-4.664zm6.5 99.836c0-.5.5-1 1-1h42.332c.5 0 1 .5 1 1s-.5 1-1 1H87c-.5 0-1-.5-1-1zm0 0" fill-rule="evenodd" fill="#fff"/><path d="M108.293 50.047h17c.5 0 .832.336.832.836v1.832c0 .5-.332.832-.832.832h-17c-.5 0-.832-.332-.832-.832v-1.832c0-.5.332-.836.832-.836zm0 0M88.96 67.047h34c.5 0 .833.336.833.836v1.832c0 .5-.332.832-.832.832h-34c-.5 0-.836-.332-.836-.832v-1.832c0-.5.336-.836.836-.836zm0 0M88.96 117.715h34c.5 0 .833.332.833.832v1.836c0 .5-.332.832-.832.832h-34c-.5 0-.836-.332-.836-.832v-1.836c0-.5.336-.832.836-.832zm0 0M88.96 82.047h39.665c.5 0 .836.336.836.836v5.5c0 .5-.336.832-.836.832H88.961c-.5-.168-.836-.5-.836-.832v-5.5c0-.5.336-.836.836-.836zm0 0M88.96 93.383h39.665c.5 0 .836.332.836.832v13c0 .5-.336.832-.836.832H88.961c-.5 0-.836-.332-.836-.832v-13c0-.5.336-.832.836-.832zm0 0M108.113 56.941h19.5c.5 0 .832.332.832.832v.168c0 .5-.332.832-.832.832h-19.5c-.5 0-.832-.332-.832-.832v-.332c0-.336.332-.668.832-.668zm0 0M108.113 62.11h19.5c.5 0 .832.331.832.831v.168c0 .5-.332.832-.832.832h-19.5c-.5 0-.832-.332-.832-.832v-.336c0-.332.332-.664.832-.664zm0 0M88.781 73.61h38.664c.5 0 .836.331.836.831v.168c0 .5-.336.832-.836.832H88.781c-.5 0-.836-.332-.836-.832v-.168c0-.5.336-.832.836-.832zm0 0M88.781 124.273h38.664c.5 0 .836.336.836.836v.164c0 .5-.336.836-.836.836H88.781c-.5 0-.836-.336-.836-.836v-.164c0-.336.336-.836.836-.836zm0 0" fill="#ebebeb"/><path d="M101.281 60.273c.5-1.164-1.168-1.832-3.336-.332-1.5 1-1.832.668-4.664.832-2.168.168.164 2.168 2 2.336 1.832.164 4.5-.668 6-2.836zm0 0" fill="url(#g)"/><path d="M88.945 54.773c-.5 1.168 1.168 1.836 3.336.336 1.664-1 1.832-.668 4.664-.836 2.168-.164-.164-2.332-2-2.5-1.832-.164-4.5.668-6 3zm0 0" fill="url(#h)"/><path d="M101.281 60.273c-1 2.168-3.336 3.668-6.168 3.668-2.832 0-5.168-1.5-6.168-3.668-1.332-3.164 3.336-4 6.168-.832 2.668 2.832 5.332 1.832 6.168.832zm0 0" fill="url(#i)"/><path d="M88.945 54.773c1-2.332 3.5-3.832 6.168-3.832s5.168 1.5 6.168 3.832c1.332 3.168-3.336 4-6.168.836-2.668-3-5.332-2-6.168-.836zm0 0" fill="url(#j)"/><path d="M36.5 35.668c1-2.168-2-3.168-6-.668-2.832 1.832-3.332 1.332-8.332 1.668-3.836.164.332 3.832 3.5 4.164 3.164.336 8.164-1.164 10.832-5.164zm0 0" fill="url(#k)"/><path d="M14.5 26c-1 2.168 2 3.168 6 .668 2.832-1.836 3.332-1.336 8.332-1.668 3.836-.168-.332-3.832-3.5-4.168-3.164-.5-8 1.168-10.832 5.168zm0 0" fill="url(#l)"/><path d="M36.5 35.668c-2 4-6.168 6.664-11 6.664s-9-2.664-11-6.664c-2.5-5.5 5.832-7.168 11-1.5 4.832 5.164 9.5 3.5 11 1.5zm0 0" fill="url(#m)"/><path d="M14.5 26c2-4 6.168-6.668 11-6.668S34.5 22 36.5 26c2.5 5.5-5.832 7.168-11 1.5-4.668-5.168-9.332-3.5-11-1.5zm0 0" fill="url(#n)"/></svg>