<svg xmlns="http://www.w3.org/2000/svg" xmlns:xlink="http://www.w3.org/1999/xlink" width="190pt" height="200" viewBox="0 0 190 150"><defs><linearGradient id="c" gradientUnits="userSpaceOnUse" x1="-253.018" y1="430.205" x2="-252.031" y2="430.205" gradientTransform="matrix(165.11 0 0 -129.30577 41788.759 55692.698)"><stop offset="0" stop-color="#87CEFA"/><stop offset="1" stop-color="#4169E1"/></linearGradient><linearGradient id="d" gradientUnits="userSpaceOnUse" x1="-252.852" y1="468.123" x2="-253.057" y2="472.329" gradientTransform="matrix(188.35218 0 0 20.66154 47727.874 -9543.088)"><stop offset="0" stop-color="#392dd1"/><stop offset="1" stop-color="#4169E1"/></linearGradient><filter id="a" filterUnits="objectBoundingBox" x="0%" y="0%" width="100%" height="100%"><feColorMatrix in="SourceGraphic" values="0 0 0 0 1 0 0 0 0 1 0 0 0 0 1 0 0 0 1 0"/></filter><mask id="f"><path fill-opacity=".518" d="M0 0h190v150H0z" filter="url(#a)"/></mask><clipPath id="b"><path d="M0 0h190v150H0z"/></clipPath><g id="e" clip-path="url(#b)" fill="#f1f1f1"><path d="M71.852 27.223h75.421c.387 0 .77.386.77.77v4.616c0 .383-.383.766-.77.766H71.852c-.383 0-.77-.383-.77-.766v-4.617c-.191-.383.191-.77.77-.77zm0 0M71.852 50.684h73.503c.383 0 .77.386.77.77v4.616c0 .383-.387.77-.77.77H71.852c-.383 0-.77-.387-.77-.77v-4.617c-.191-.383.191-.77.77-.77zm0 0M34.809 79.531h122.254c.382 0 .769.383.769.77v11.922c0 .386-.387.77-.77.77H34.81c-.383 0-.766-.384-.766-.77V80.3c0-.387.383-.77.766-.77zm0 0M71.852 40.3h85.785c.386 0 .77.384.77.77v1.922c0 .383-.384.77-.77.77H71.852c-.383 0-.77-.387-.77-.77V41.07c-.191-.386.191-.77.77-.77zm0 0M34.809 67.031H153.8c.383 0 .765.383.765.77v1.922c0 .386-.382.77-.765.77H34.809c-.383 0-.766-.384-.766-.77V67.8c0-.578.383-.77.766-.77zm0 0"/></g><radialGradient id="g" gradientUnits="userSpaceOnUse" cx="10.741" cy="139.811" fx="10.741" fy="139.811" r="8.232" gradientTransform="matrix(-2.75922 0 0 2.63442 73.936 -320.152)"><stop offset="0" stop-color="#4aab00"/><stop offset="1" stop-color="#4c7400"/></radialGradient><radialGradient id="h" gradientUnits="userSpaceOnUse" cx="10.741" cy="139.857" fx="10.741" fy="139.857" r="8.232" gradientTransform="matrix(-2.75922 0 0 2.63442 73.936 -320.152)"><stop offset="0" stop-color="#3970c4"/><stop offset="1" stop-color="#0d336b"/></radialGradient><radialGradient id="i" gradientUnits="userSpaceOnUse" cx="6.011" cy="133.822" fx="6.011" fy="133.822" r="11.15" gradientTransform="matrix(-2.75922 0 0 2.63442 73.936 -320.152)"><stop offset="0" stop-color="#78ef00"/><stop offset="1" stop-color="#54a700"/></radialGradient><radialGradient id="j" gradientUnits="userSpaceOnUse" cx="6.011" cy="133.868" fx="6.011" fy="133.868" r="11.15" gradientTransform="matrix(-2.75922 0 0 2.63442 73.936 -320.152)"><stop offset="0" stop-color="#00c4ff"/><stop offset="1" stop-color="#06f"/></radialGradient></defs><path d="M11.898 6.73c0-3.847 3.07-6.73 6.72-6.73h151.421c3.84 0 6.719 3.078 6.719 6.73v122.5H11.707zm0 0" fill-rule="evenodd" fill="url(#c)"/><path d="M2.688 141.73C-.575 146.348 1.151 150 6.91 150h176.758c5.758 0 7.293-3.652 3.836-7.883l-10.555-12.695H11.9zm0 0" fill-rule="evenodd" fill="url(#d)"/><path d="M12.281 138.652c-2.879 3.078-1.726 5.578 2.305 5.578h161.402c4.032 0 5.184-2.308 2.114-5.19l-9.79-9.81H20.918zm0 0" fill-rule="evenodd" fill-opacity=".259"/><path d="M18.809 13.27c0-2.692 2.109-4.81 4.796-4.81h141.829c2.687 0 4.796 2.118 4.796 4.81v95.96c0 2.692-2.109 4.81-4.796 4.81H23.605c-2.687 0-4.796-2.118-4.796-4.81zm0 0" fill-rule="evenodd" fill="#fff"/><use xlink:href="#e" mask="url(#f)"/><path d="M64.293 46.73c1.152-2.69-2.305-4.039-7.293-.77-3.453 2.31-4.031 1.54-10.363 1.923-4.797.195.383 4.808 4.414 5.387 3.644.578 9.789-1.54 13.242-6.54zm0 0" fill="url(#g)"/><path d="M36.848 34.809c-1.153 2.691 2.304 4.039 7.293.77 3.457-2.31 4.03-1.54 10.363-1.927 4.8-.191-.383-4.804-4.414-5.382-4.028-.579-9.785 1.539-13.242 6.539zm0 0" fill="url(#h)"/><path d="M64.293 46.73C61.797 51.54 56.617 55 50.668 55c-5.95 0-11.324-3.46-13.629-8.27-3.07-6.73 7.293-8.847 13.629-1.921 5.758 6.539 11.516 4.421 13.625 1.921zm0 0" fill="url(#i)"/><path d="M36.848 34.809c2.496-4.809 7.675-8.27 13.629-8.27 5.949 0 11.32 3.461 13.625 8.27 3.07 6.73-7.293 8.843-13.625 1.921-5.954-6.539-11.707-4.421-13.63-1.921zm0 0" fill="url(#j)"/></svg>