<svg xmlns="http://www.w3.org/2000/svg" xmlns:xlink="http://www.w3.org/1999/xlink" width="148pt" height="200" viewBox="0 0 148 150"><defs><linearGradient id="d" gradientUnits="userSpaceOnUse" x1="-357.088" y1="398.497" x2="-355.357" y2="397.305" gradientTransform="matrix(40.55111 0 0 -51.30536 14572.87 20526.931)"><stop offset="0" stop-color="#4169E1"/><stop offset="1" stop-color="#5118dd"/></linearGradient><filter id="a" filterUnits="objectBoundingBox" x="0%" y="0%" width="100%" height="100%"><feColorMatrix in="SourceGraphic" values="0 0 0 0 1 0 0 0 0 1 0 0 0 0 1 0 0 0 1 0"/></filter><mask id="f"><path fill-opacity=".518" d="M0 0h148v150H0z" filter="url(#a)"/></mask><clipPath id="b"><path d="M0 0h148v150H0z"/></clipPath><g id="e" clip-path="url(#b)" fill="#f1f1f1"><path d="M106.145 79.695h18.644c.102 0 .148.051.148.149v1.277c0 .102-.046.149-.148.149h-18.644c-.102 0-.149-.047-.149-.149v-1.277c0-.047.047-.149.149-.149zm0 0M106.145 85.5h18.152c.098 0 .148.05.148.148v1.278c0 .097-.05.148-.148.148h-18.152c-.102 0-.149-.05-.149-.148v-1.278c0-.05.047-.148.149-.148zm0 0M97.066 107.531h25.95c.097 0 .148.051.148.149v1.28c0 .099-.05.145-.148.145h-25.95c-.101 0-.148-.046-.148-.144v-1.281c0-.098.047-.149.148-.149zm0 0M95.98 92.633h31.227c.098 0 .148.047.148.144v3.051c0 .098-.05.149-.148.149H95.98c-.097 0-.148-.051-.148-.149v-3.05c0-.048.098-.145.148-.145zm0 0M95.93 97.648h31.277c.098 0 .148.047.148.149v6.637c0 .097-.05.148-.148.148H95.93c-.098 0-.149-.05-.149-.148v-6.637c0-.102.051-.149.149-.149zm0 0M106.145 82.992h21.16c.101 0 .148.047.148.149v.59c0 .097-.047.148-.148.148h-21.16c-.102 0-.149-.05-.149-.149v-.59c0-.1.047-.148.149-.148zm0 0M95.93 90.121h30.39c.098 0 .149.05.149.149v.59c0 .1-.051.148-.149.148H95.93c-.098 0-.149-.047-.149-.149v-.59c0-.097.051-.148.149-.148zm0 0M97.066 110.777h29.352c.098 0 .148.051.148.149v.59c0 .097-.05.148-.148.148H97.066c-.101 0-.148-.05-.148-.148v-.59c0-.047.047-.149.148-.149zm0 0"/></g><radialGradient id="g" gradientUnits="userSpaceOnUse" cx="-144.814" cy="131.444" fx="-144.814" fy="131.444" r="8.232" gradientTransform="matrix(-.70927 0 0 .67372 -4.22 -2.722)"><stop offset="0" stop-color="#4aab00"/><stop offset="1" stop-color="#4c7400"/></radialGradient><radialGradient id="h" gradientUnits="userSpaceOnUse" cx="-144.814" cy="131.49" fx="-144.814" fy="131.49" r="8.232" gradientTransform="matrix(-.70927 0 0 .67372 -4.22 -2.722)"><stop offset="0" stop-color="#3970c4"/><stop offset="1" stop-color="#0d336b"/></radialGradient><radialGradient id="i" gradientUnits="userSpaceOnUse" cx="-149.544" cy="125.456" fx="-149.544" fy="125.456" r="11.15" gradientTransform="matrix(-.70927 0 0 .67372 -4.22 -2.722)"><stop offset="0" stop-color="#78ef00"/><stop offset="1" stop-color="#54a700"/></radialGradient><radialGradient id="j" gradientUnits="userSpaceOnUse" cx="-149.544" cy="125.502" fx="-149.544" fy="125.502" r="11.15" gradientTransform="matrix(-.70927 0 0 .67372 -4.22 -2.722)"><stop offset="0" stop-color="#00c4ff"/><stop offset="1" stop-color="#06f"/></radialGradient><linearGradient id="k" gradientUnits="userSpaceOnUse" x1="-153.125" y1="545.082" x2="-151.394" y2="543.89" gradientTransform="matrix(41.28435 0 0 -31.965 6341.736 17500.019)"><stop offset="0" stop-color="#4169E1"/><stop offset="1" stop-color="#5118dd"/></linearGradient><linearGradient id="l" gradientUnits="userSpaceOnUse" x1="-153.345" y1="572.231" x2="-151.614" y2="571.04" gradientTransform="matrix(47.10283 0 0 5.10762 7240.876 -2815.759)"><stop offset="0" stop-color="#4169E1"/><stop offset="1" stop-color="#5118dd"/></linearGradient><radialGradient id="m" gradientUnits="userSpaceOnUse" cx="160.692" cy="275.351" fx="160.692" fy="275.351" r="8.232" gradientTransform="matrix(-.70927 0 0 .67372 140.467 -102.43)"><stop offset="0" stop-color="#4aab00"/><stop offset="1" stop-color="#4c7400"/></radialGradient><radialGradient id="n" gradientUnits="userSpaceOnUse" cx="160.692" cy="275.397" fx="160.692" fy="275.397" r="8.232" gradientTransform="matrix(-.70927 0 0 .67372 140.467 -102.43)"><stop offset="0" stop-color="#3970c4"/><stop offset="1" stop-color="#0d336b"/></radialGradient><radialGradient id="o" gradientUnits="userSpaceOnUse" cx="155.962" cy="269.362" fx="155.962" fy="269.362" r="11.15" gradientTransform="matrix(-.70927 0 0 .67372 140.467 -102.43)"><stop offset="0" stop-color="#78ef00"/><stop offset="1" stop-color="#54a700"/></radialGradient><radialGradient id="p" gradientUnits="userSpaceOnUse" cx="155.962" cy="269.408" fx="155.962" fy="269.408" r="11.15" gradientTransform="matrix(-.70927 0 0 .67372 140.467 -102.43)"><stop offset="0" stop-color="#00c4ff"/><stop offset="1" stop-color="#06f"/></radialGradient><mask id="r"><path fill-opacity=".518" d="M0 0h148v150H0z" filter="url(#a)"/></mask><clipPath id="c"><path d="M0 0h148v150H0z"/></clipPath><g id="q" clip-path="url(#c)" fill="#f1f1f1"><path d="M34.031 77.484h18.992c.098 0 .149.051.149.149v1.277c0 .098-.05.149-.149.149H34.031c-.101 0-.148-.051-.148-.149v-1.277c0-.098.097-.149.148-.149zm0 0M34.031 83.29h18.5c.098 0 .149.046.149.144v1.28c0 .099-.051.15-.149.15h-18.5c-.101 0-.148-.052-.148-.15v-1.28c0-.098.097-.145.148-.145zm0 0M24.805 90.418h30.683c.102 0 .149.05.149.148v3.051c0 .098-.047.145-.149.145H24.805c-.098 0-.149-.047-.149-.145v-3.05c0-.098.051-.149.149-.149zm0 0M34.031 80.73H55.59c.097 0 .148.051.148.149v.59c0 .097-.05.148-.148.148H34.03c-.101 0-.148-.05-.148-.148v-.59c0-.098.097-.149.148-.149zm0 0M24.805 87.32h29.894c.102 0 .149.051.149.149v.59c0 .097-.047.148-.149.148H24.805c-.098 0-.149-.098-.149-.148v-.59c0-.098.051-.149.149-.149zm0 0"/></g><linearGradient id="s" gradientUnits="userSpaceOnUse" x1="-152.252" y1="546.496" x2="-150.521" y2="545.305" gradientTransform="matrix(28.09667 0 0 -51.30536 4339.961 28057.087)"><stop offset="0" stop-color="#4169E1"/><stop offset="1" stop-color="#5118dd"/></linearGradient><radialGradient id="t" gradientUnits="userSpaceOnUse" cx="-47.204" cy="162.185" fx="-47.204" fy="162.185" r="6.822" gradientTransform="matrix(-.70927 0 0 .67372 35.341 -88.208)"><stop offset="0" stop-color="#4aab00"/><stop offset="1" stop-color="#4c7400"/></radialGradient><radialGradient id="u" gradientUnits="userSpaceOnUse" cx="-47.204" cy="162.223" fx="-47.204" fy="162.223" r="6.822" gradientTransform="matrix(-.70927 0 0 .67372 35.341 -88.208)"><stop offset="0" stop-color="#3970c4"/><stop offset="1" stop-color="#0d336b"/></radialGradient><radialGradient id="v" gradientUnits="userSpaceOnUse" cx="-51.124" cy="157.222" fx="-51.124" fy="157.222" r="9.24" gradientTransform="matrix(-.70927 0 0 .67372 35.341 -88.208)"><stop offset="0" stop-color="#78ef00"/><stop offset="1" stop-color="#54a700"/></radialGradient><radialGradient id="w" gradientUnits="userSpaceOnUse" cx="-51.124" cy="157.26" fx="-51.124" fy="157.26" r="9.24" gradientTransform="matrix(-.70927 0 0 .67372 35.341 -88.208)"><stop offset="0" stop-color="#00c4ff"/><stop offset="1" stop-color="#06f"/></radialGradient></defs><path d="M153.603 244.802c49.195 0 89.094-39.705 89.094-88.6a88.304 88.304 0 0 0-5.598-31.001c-12.598-33.598-45.197-57.6-83.496-57.6-49.203 0-89.102 39.697-89.102 88.6 0 48.896 39.899 88.601 89.102 88.601zm0 0" transform="scale(.49333 .4918)" fill="none" stroke-width="2.578" stroke-linecap="round" stroke-linejoin="round" stroke="#aaa" stroke-dasharray="8.5936,8.5936" stroke-miterlimit="3.636"/><path d="M47.063 44.605l-3.208 11.657c-.144.441-.59.738-1.035.59a.765.765 0 0 1-.343-.196l-8.09-7.23a.8.8 0 0 1-.051-1.18c.098-.098.2-.195.344-.246l11.3-4.426c.442-.148.934.047 1.083.492.05.196.05.395 0 .54zm66.402 11.165l-10.653-5.754c-.398-.246-.542-.739-.347-1.13.05-.1.148-.199.246-.296l8.883-6.195c.394-.247.886-.2 1.183.195a.535.535 0 0 1 .149.344l1.773 11.953a.908.908 0 0 1-.691.98c-.195.051-.344 0-.543-.097zm-49.578 62.609l11.496-3.84a.867.867 0 0 1 1.082.543c.05.148.05.246.05.395l-1.527 10.718c-.05.446-.496.79-.937.739a.441.441 0 0 1-.348-.149l-9.965-6.836c-.394-.246-.492-.785-.195-1.18 0-.195.145-.343.344-.39zm0 0" fill="#b5b5b5"/><path d="M91.512 74.559c0-.887.691-1.575 1.582-1.575h37.344c.886 0 1.578.739 1.578 1.575v48.097c0 .883-.692 1.574-1.578 1.574H93.094a1.56 1.56 0 0 1-1.582-1.574zm0 0" fill-rule="evenodd" fill="url(#d)"/><path d="M93.14 75.984c0-.492.395-.886.891-.886H129.5c.492 0 .887.394.887.886v39.883a.884.884 0 0 1-.887.887H94.031a.884.884 0 0 1-.89-.887zm0 0" fill-rule="evenodd" fill="#fff"/><use xlink:href="#e" mask="url(#f)"/><path d="M113.664 120.098c0-.922-.75-1.672-1.676-1.672-.93 0-1.68.75-1.68 1.672 0 .925.75 1.672 1.68 1.672.926 0 1.676-.747 1.676-1.672zm0 0" fill="#fff"/><path d="M103.602 85.477c.293-.692-.594-1.036-1.875-.2-.891.59-1.04.395-2.665.493-1.234.097.098 1.28 1.086 1.378.985.098 2.563-.394 3.454-1.671zm0 0" fill="url(#g)"/><path d="M96.594 82.379c-.297.687.594 1.031 1.875.195.886-.59 1.035-.394 2.664-.492 1.234-.05-.098-1.23-1.133-1.379-1.04-.144-2.566.445-3.406 1.676zm0 0" fill="url(#h)"/><path d="M103.602 85.477a3.986 3.986 0 0 1-3.504 2.113c-1.532 0-2.91-.887-3.504-2.113-.79-1.723 1.875-2.262 3.504-.493 1.527 1.672 3.007 1.13 3.504.493zm0 0" fill="url(#i)"/><path d="M96.594 82.379a3.973 3.973 0 0 1 3.504-2.117c1.527 0 2.91.886 3.504 2.117.789 1.719-1.875 2.262-3.504.488-1.532-1.672-3.008-1.082-3.504-.488zm0 0" fill="url(#j)"/><path d="M19.14 72c0-.688.544-1.23 1.235-1.23h38.824c.692 0 1.235.543 1.235 1.23v30.738H19.14zm0 0" fill-rule="evenodd" fill="url(#k)"/><path d="M16.824 105.785c-.84 1.133-.394 2.067 1.035 2.067h44.25c1.434 0 1.828-.883.938-1.965l-2.613-3.149H19.14zm0 0" fill-rule="evenodd" fill="url(#l)"/><path d="M19.191 105.05c-.691.735-.445 1.376.59 1.376h40.407c1.035 0 1.234-.59.542-1.278l-2.468-2.41H21.363zm0 0" fill-rule="evenodd" fill-opacity=".259"/><path d="M20.82 73.723c0-.493.395-.887.887-.887h36.16c.496 0 .89.394.89.887v24.343a.881.881 0 0 1-.89.883h-36.16a.88.88 0 0 1-.887-.883zm0 0" fill-rule="evenodd" fill="#fff"/><path d="M31.621 82.723c.297-.692-.59-1.035-1.875-.2-.887.59-1.035.395-2.66.493-1.234.05.098 1.23 1.133 1.379 1.035.144 2.515-.395 3.402-1.672zm0 0" fill="url(#m)"/><path d="M24.566 79.621c-.293.692.594 1.035 1.875.2.891-.59 1.04-.395 2.664-.493 1.235-.05-.097-1.23-1.132-1.379-.938-.097-2.516.446-3.407 1.672zm0 0" fill="url(#n)"/><path d="M31.621 82.723a3.975 3.975 0 0 1-3.5 2.113c-1.531 0-2.91-.887-3.504-2.113-.789-1.723 1.875-2.262 3.504-.493 1.48 1.672 2.957 1.13 3.5.493zm0 0" fill="url(#o)"/><path d="M24.566 79.621a3.986 3.986 0 0 1 3.504-2.113c1.532 0 2.91.887 3.504 2.113.79 1.723-1.875 2.266-3.504.492-1.48-1.672-2.96-1.082-3.504-.492zm0 0" fill="url(#p)"/><use xlink:href="#q" mask="url(#r)"/><path d="M61.422 12.738a2.752 2.752 0 0 1 2.762-2.754h22.543a2.756 2.756 0 0 1 2.765 2.754v45.785a2.753 2.753 0 0 1-2.765 2.754H64.184a2.75 2.75 0 0 1-2.762-2.754zm0 0" fill-rule="evenodd" fill="url(#s)"/><path d="M62.703 13.133c0-.836.692-1.528 1.527-1.528h22.547c.84 0 1.532.692 1.532 1.528v42c0 .836-.692 1.523-1.532 1.523H64.23a1.534 1.534 0 0 1-1.527-1.523zm2.91 45.195c0-.246.2-.441.446-.441h18.843a.442.442 0 1 1 0 .883H66.06c-.246-.047-.446-.247-.446-.442zm0 0" fill-rule="evenodd" fill="#fff"/><path d="M75.48 16.695h7.793c.149 0 .247.098.247.246v.985c0 .148-.098.246-.247.246H75.48c-.148 0-.246-.098-.246-.246v-.985c-.05-.148.098-.246.246-.246zm0 0M66.797 24.27h15.39c.149 0 .247.097.247.246v.984c0 .148-.098.246-.246.246H66.796c-.149 0-.246-.098-.246-.246v-.984c0-.149.097-.246.246-.246zm0 0M66.797 46.941h15.39c.149 0 .247.098.247.246v.985c0 .148-.098.246-.246.246H66.796c-.149 0-.246-.098-.246-.246v-.984c0-.098.097-.247.246-.247zm0 0M66.797 30.957h17.906c.149 0 .25.102.25.246v2.656c0 .149-.101.246-.25.246H66.797c-.149 0-.246-.097-.246-.246v-2.656c0-.098.097-.246.246-.246zm0 0M66.797 36.023h17.906c.149 0 .25.098.25.247v6c0 .148-.101.246-.25.246H66.797c-.149 0-.246-.098-.246-.246v-6c0-.149.097-.247.246-.247zm0 0M75.39 19.727h8.833c.148 0 .246.097.246.246v.246a.234.234 0 0 1-.246.246H75.39a.234.234 0 0 1-.246-.246v-.246c0-.149.097-.246.246-.246zm0 0M75.39 22.04h8.833c.148 0 .246.097.246.241v.246c0 .149-.098.246-.246.246H75.39c-.149 0-.246-.097-.246-.246v-.246c0-.144.097-.242.246-.242zm0 0M66.707 27.2h17.418c.145 0 .246.1.246.245v.246a.234.234 0 0 1-.246.247H66.707c-.148 0-.246-.098-.246-.247v-.246c0-.144.148-.246.246-.246zm0 0M66.707 49.922h17.418c.145 0 .246.098.246.246v.246a.234.234 0 0 1-.246.246H66.707c-.148 0-.246-.097-.246-.246v-.246c0-.148.148-.246.246-.246zm0 0" fill="#ebebeb"/><path d="M73.074 20.758c.246-.59-.496-.836-1.582-.149-.738.493-.887.348-2.219.446-1.035.047.098 1.03.938 1.129.84.097 2.121-.391 2.863-1.426zm0 0" fill="url(#t)"/><path d="M67.25 18.2c-.246.593.496.84 1.578.148.742-.493.89-.344 2.223-.442 1.035-.05-.098-1.031-.938-1.133-.84-.097-2.172.395-2.863 1.426zm0 0" fill="url(#u)"/><path d="M73.074 20.758c-.496 1.035-1.629 1.77-2.914 1.77-1.281 0-2.414-.735-2.91-1.77-.64-1.426 1.531-1.867 2.91-.395 1.235 1.38 2.469.938 2.914.395zm0 0" fill="url(#v)"/><path d="M67.25 18.2c.496-1.032 1.629-1.77 2.91-1.77 1.285 0 2.418.738 2.914 1.77.64 1.429-1.531 1.87-2.914.394-1.281-1.375-2.515-.883-2.91-.395zm0 0" fill="url(#w)"/></svg>